#!OML:ASF H:\LiuWeirdWalks\Patient Classification 1\Patient 1\Session 1\male.ASF
:FULLY-SPECIFIED
:DEGREES
285
root 2.1102 18.3127 30.5903 -1.26068 10.576 0.463972
lowerback 6.57286 -1.75775 -3.11436
upperback 2.66238 -2.48023 3.09889
thorax -0.658867 -1.27708 5.1306
lowerneck -22.7705 4.29906 9.41646
upperneck 3.9335 4.49292 -13.2011
head 5.37671 1.39714 -5.29578
rclavicle 1.58034e-014 -1.19271e-014
rhumerus -29.3788 -1.95962 -79.6979
rradius 40.7482
rwrist -4.74768
rhand -15.8668 -1.50893
rfingers 7.12502
rthumb 10.3287 -31.2353
lclavicle 1.58034e-014 -1.19271e-014
lhumerus -46.7739 0.692507 86.9537
lradius 32.3049
lwrist -2.64089
lhand 0.0491786 -4.12637
lfingers 7.12502
lthumb 25.6375 24.1676
rfemur -21.4612 -11.5916 20.5397
rtibia 36.8715
rfoot 3.01571 -16.3031
rtoes -10.6923
lfemur -20.8454 6.99043 -15.076
ltibia 64.0226
lfoot -0.56659 4.94837
ltoes -18.1361
286
root 2.10219 18.3168 30.7 -1.22575 10.7455 0.233192
lowerback 6.51424 -1.70003 -3.10086
upperback 2.66899 -2.40252 3.01474
thorax -0.632692 -1.23817 5.02743
lowerneck -22.5065 4.25618 9.41648
upperneck 3.72128 4.42989 -13.1373
head 5.26005 1.38391 -5.27963
rclavicle -7.05686e-015 2.70347e-014
rhumerus -29.246 -0.283256 -80.1921
rradius 42.0276
rwrist -4.59343
rhand -16.2459 -0.619045
rfingers 7.12502
rthumb 9.96293 -30.3633
lclavicle -7.05686e-015 2.70347e-014
lhumerus -47.4882 1.91407 86.3515
lradius 31.354
lwrist -2.54923
lhand 0.436654 -3.61299
lfingers 7.12502
lthumb 26.0085 24.627
rfemur -21.2632 -11.3927 20.8123
rtibia 37.1033
rfoot 2.7615 -16.7119
rtoes -10.7649
lfemur -21.6754 7.02056 -15.009
ltibia 63.0405
lfoot -0.861658 4.92193
ltoes -18.3301
287
root 2.0956 18.3166 30.8093 -1.38465 10.9235 -0.393744
lowerback 6.5312 -1.65848 -2.70924
upperback 2.69486 -2.32291 3.05481
thorax -0.639263 -1.19579 4.84198
lowerneck -22.1303 4.17954 9.37268
upperneck 3.49287 4.34018 -13.0629
head 5.11731 1.36154 -5.25549
rclavicle -2.39536e-014 9.54166e-015
rhumerus -29.1783 1.2012 -80.5297
rradius 43.3356
rwrist -4.47572
rhand -16.4901 0.290013
rfingers 7.12502
rthumb 9.72736 -29.4654
lclavicle -2.39536e-014 9.54166e-015
lhumerus -48.2368 3.1841 85.651
lradius 30.3599
lwrist -2.79982
lhand 0.613689 -3.38884
lfingers 7.12502
lthumb 26.178 24.8261
rfemur -20.8685 -11.1564 21.4971
rtibia 37.2487
rfoot 2.4583 -17.2002
rtoes -10.7956
lfemur -22.3307 6.9907 -14.4774
ltibia 62.0014
lfoot -1.22086 4.92352
ltoes -18.4172
288
root 2.09375 18.3141 30.9174 -1.54692 11.1823 -0.926874
lowerback 6.51704 -1.63387 -2.37695
upperback 2.74241 -2.2695 3.08461
thorax -0.600505 -1.16812 4.67948
lowerneck -21.7562 4.07525 9.26077
upperneck 3.2407 4.22797 -12.974
head 4.96342 1.3281 -5.21768
rclavicle 2.25621e-014 -1.27222e-014
rhumerus -29.0811 2.51238 -80.7118
rradius 44.6381
rwrist -4.44411
rhand -16.5879 1.16414
rfingers 7.12502
rthumb 9.63295 -28.5956
lclavicle 2.25621e-014 -1.27222e-014
lhumerus -48.9272 4.48755 84.8703
lradius 29.3224
lwrist -3.29809
lhand 0.621416 -3.3623
lfingers 7.12502
lthumb 26.1854 24.8516
rfemur -20.4304 -11.09 22.0552
rtibia 37.3719
rfoot 2.08239 -17.6126
rtoes -10.7917
lfemur -22.8925 6.7928 -14.0886
ltibia 60.8502
lfoot -1.59149 5.07259
ltoes -18.4231
289
root 2.09522 18.3109 31.0249 -1.61089 11.4608 -1.1755
lowerback 6.42934 -1.6136 -2.32947
upperback 2.77425 -2.23949 3.05135
thorax -0.52531 -1.15442 4.61188
lowerneck -21.333 3.98167 9.16598
upperneck 2.95652 4.12838 -12.9096
head 4.79529 1.30138 -5.1891
rclavicle 3.0911e-014 4.77083e-015
rhumerus -28.9788 3.69412 -80.7918
rradius 45.926
rwrist -4.53439
rhand -16.5708 1.99302
rfingers 7.12502
rthumb 9.64951 -27.766
lclavicle 3.0911e-014 4.77083e-015
lhumerus -49.6083 5.86509 83.9589
lradius 28.2459
lwrist -4.02161
lhand 0.48173 -3.5411
lfingers 7.12502
lthumb 26.0517 24.6925
rfemur -20.0749 -11.0845 22.3068
rtibia 37.563
rfoot 1.63125 -17.9837
rtoes -10.7679
lfemur -23.4086 6.47587 -14.048
ltibia 59.5476
lfoot -1.96433 5.38032
ltoes -18.372
290
root 2.09765 18.307 31.13 -1.4929 11.744 -0.980135
lowerback 6.27215 -1.58282 -2.74534
upperback 2.77222 -2.22273 2.91346
thorax -0.430514 -1.1506 4.69702
lowerneck -20.9495 3.90575 9.07601
upperneck 2.70779 4.05082 -12.8459
head 4.64716 1.28342 -5.15944
rclavicle -4.64659e-014 2.98177e-014
rhumerus -28.8498 4.76719 -80.7912
rradius 47.1861
rwrist -4.81386
rhand -16.4489 2.71112
rfingers 7.12502
rthumb 9.76706 -27.0424
lclavicle -4.64659e-014 2.98177e-014
lhumerus -50.2699 7.31276 82.9029
lradius 27.1361
lwrist -4.93786
lhand 0.212106 -3.88402
lfingers 7.12502
lthumb 25.7935 24.3874
rfemur -19.9036 -11.0671 22.098
rtibia 37.8867
rfoot 1.10154 -18.3597
rtoes -10.7159
lfemur -23.9271 6.04804 -14.5264
ltibia 58.0692
lfoot -2.2914 5.84025
ltoes -18.2711
291
root 2.10032 18.3022 31.2318 -1.19561 12.0099 -0.410418
lowerback 6.05712 -1.44204 -3.2364
upperback 2.83436 -2.06285 2.5354
thorax -0.259194 -1.07706 4.56309
lowerneck -21.2101 3.74169 8.83392
upperneck 2.72905 3.85113 -12.5728
head 4.65672 1.19153 -5.05208
rclavicle -5.11871e-015 3.97569e-015
rhumerus -28.5568 5.24699 -80.7317
rradius 48.4136
rwrist -5.23884
rhand -16.2458 3.32986
rfingers 7.12502
rthumb 9.96304 -26.4144
lclavicle -5.11871e-015 3.97569e-015
lhumerus -50.5889 8.3911 81.7706
lradius 25.9823
lwrist -5.85938
lhand -0.117869 -4.28567
lfingers 7.12502
lthumb 25.4775 24.0313
rfemur -19.9291 -10.9998 21.5116
rtibia 38.3405
rfoot 0.499073 -18.7675
rtoes -10.6114
lfemur -24.4551 5.54339 -15.4265
ltibia 56.4282
lfoot -2.58048 6.40334
ltoes -18.0935
292
root 2.10306 18.2949 31.3309 -0.834679 12.2413 0.293837
lowerback 5.84178 -1.30296 -3.92269
upperback 2.87042 -1.91136 2.15193
thorax -0.106888 -1.00941 4.53663
lowerneck -21.4202 3.6008 8.62329
upperneck 2.72289 3.68065 -12.3399
head 4.65618 1.11416 -4.95985
rclavicle -4.96962e-015 2.66371e-014
rhumerus -28.2726 5.67287 -80.6014
rradius 49.6183
rwrist -5.81644
rhand -16.0052 3.80111
rfingers 7.12502
rthumb 10.1951 -25.9318
lclavicle -4.96962e-015 2.66371e-014
lhumerus -50.9165 9.53885 80.5585
lradius 24.8715
lwrist -6.74221
lhand -0.41838 -4.60187
lfingers 7.12502
lthumb 25.1896 23.7558
rfemur -20.0312 -10.8632 20.7958
rtibia 38.8525
rfoot -0.146376 -19.2204
rtoes -10.442
lfemur -24.9323 4.99853 -16.4527
ltibia 54.6711
lfoot -2.85798 6.97158
ltoes -17.7913
293
root 2.10651 18.2849 31.427 -0.451129 12.4302 1.02703
lowerback 5.62688 -1.16132 -4.65229
upperback 2.89551 -1.7537 1.76864
thorax 0.033773 -0.939385 4.53588
lowerneck -21.6028 3.46429 8.42518
upperneck 2.71294 3.51668 -12.1206
head 4.65238 1.04044 -4.87349
rclavicle 3.4191e-014 -1.90833e-014
rhumerus -27.9934 6.00847 -80.4197
rradius 50.7925
rwrist -6.51536
rhand -15.7432 4.1337
rfingers 7.12502
rthumb 10.4479 -25.5867
lclavicle 3.4191e-014 -1.90833e-014
lhumerus -51.2462 10.677 79.2978
lradius 23.8315
lwrist -7.52436
lhand -0.678365 -4.75533
lfingers 7.12502
lthumb 24.9405 23.6372
rfemur -20.1453 -10.6746 20.0568
rtibia 39.3283
rfoot -0.7885 -19.6893
rtoes -10.1853
lfemur -25.3485 4.43505 -17.483
ltibia 52.8513
lfoot -3.15819 7.48236
ltoes -17.4563
